<svg xmlns="http://www.w3.org/2000/svg" width="44" height="44" viewBox="0 0 44 44" fill="none"><circle cx="22" cy="22" r="22" fill="#1D1D20"></circle><path fill-rule="evenodd" clip-rule="evenodd" d="M16.1367 25.4559L22.1726 28.9406L28.2084 25.4559L22.1725 21.9711L16.1367 25.4559Z" fill="#BCDBFF"></path><path d="M34.0719 14.7858L22.4452 8.07314C22.2764 7.97562 22.0683 7.97562 21.8995 8.07314L10.2729 14.7858C10.104 14.8832 10 15.0634 10 15.2584V28.6837C10 28.8786 10.104 29.0588 10.2729 29.1563L21.8995 35.8689C21.9839 35.9177 22.0781 35.9421 22.1723 35.9421C22.2666 35.9421 22.3608 35.9177 22.4452 35.8689L34.0719 29.1564C34.2407 29.0589 34.3447 28.8787 34.3447 28.6838V15.2584C34.3447 15.0634 34.2407 14.8832 34.0719 14.7858ZM33.2533 27.7385L28.754 25.1408V18.4862C28.754 18.2913 28.65 18.1111 28.4811 18.0136L22.7181 14.6863V9.54135C22.7181 9.52389 22.7172 9.50664 22.7156 9.48962L33.2533 15.5735V27.7385ZM22.717 21.6554C22.7177 21.6441 22.7181 21.6328 22.7181 21.6215V15.9466L27.6625 18.8013V24.5106L22.717 21.6554ZM21.6277 21.6554L16.6823 24.5106V18.8013L21.6266 15.9467V21.6214C21.6266 21.6328 21.627 21.6441 21.6277 21.6554ZM21.6291 9.48962C21.6275 9.50664 21.6266 9.52389 21.6266 9.54135V14.6864L15.8636 18.0136C15.6948 18.1111 15.5907 18.2913 15.5907 18.4862V25.1407L11.0915 27.7384V15.5735L21.6291 9.48962ZM22.1723 34.7662L11.6371 28.6837L16.4009 25.9333C16.4066 25.9302 16.4122 25.9269 16.4178 25.9236L22.1723 22.6012L27.9304 25.9256C27.934 25.9278 27.9376 25.9298 27.9413 25.9319L32.7076 28.6837L22.1723 34.7662Z" fill="#C8C8C8"></path></svg>