<svg xmlns="http://www.w3.org/2000/svg" width="44" height="44" viewBox="0 0 44 44" fill="none"><circle cx="22" cy="22" r="22" fill="#1D1D20"></circle><path d="M27.7652 18.9995L21.9998 30.5303L16.2344 18.9995H27.7652Z" fill="#BCDBFF"></path><path d="M33.9367 30.2949L22.4188 7.25912C22.3394 7.10026 22.1771 7 21.9995 7C21.822 7 21.6596 7.10031 21.5803 7.25912L10.0495 30.3207C9.97683 30.466 9.98461 30.6386 10.07 30.7768C10.1554 30.9149 10.3063 30.9991 10.4687 30.9991H33.5303H33.5313C33.7901 30.9991 34 30.7892 34 30.5303C34 30.4445 33.9769 30.3641 33.9367 30.2949ZM11.2271 30.0616L21.9995 8.51682L32.7719 30.0616H11.2271Z" fill="#C8C8C8"></path></svg>