<svg xmlns="http://www.w3.org/2000/svg" width="23" height="22" viewBox="0 0 23 22" fill="none"><path d="M5.99299 14.8784C10.2763 16.4773 13.9214 16.7888 18.052 14.3C18.0218 14.3435 17.2047 15.5014 15.056 16.0948C15.5099 16.6882 16.1303 17.3684 16.1303 17.3684C17.5073 17.3684 18.854 16.9921 20.0191 16.2684C20.927 15.6895 21.4415 14.6908 21.3356 13.6487C21.154 11.8684 20.7151 10.1316 20.0343 8.46716C19.1718 6.29612 17.0988 4.79084 14.6928 4.57371C14.481 4.55923 14.3297 4.55923 14.2389 4.55923L13.9968 4.79079C16.7659 5.54343 18.1429 6.71579 18.1731 6.75923C13.9211 4.70395 8.89746 4.67503 4.61519 6.67239C4.61519 6.67239 5.97704 5.38423 8.9882 4.70395L8.80663 4.53027C8.48885 4.53027 8.18621 4.55923 7.86848 4.60263C5.64413 4.96447 3.78297 6.42631 2.98098 8.43815C2.28491 10.175 1.83098 11.9987 1.66454 13.8513C1.57376 14.8355 2.05797 15.8053 2.90533 16.3698C4.02505 17.079 5.35663 17.4553 6.70334 17.4553C6.70334 17.4553 7.24806 16.775 7.79283 16.1671C5.75005 15.5882 4.91783 14.4303 4.90269 14.3868L5.28713 14.5746C5.51695 14.6869 5.75257 14.7887 5.99299 14.8784ZM8.36783 13.6198C7.38427 13.5908 6.61255 12.7948 6.64283 11.8395C6.67311 10.9421 7.42968 10.2184 8.36783 10.1895C9.35139 10.2184 10.1231 11.0145 10.0928 11.9698C10.0474 12.8672 9.30598 13.5908 8.36783 13.6198ZM14.5415 13.6198C13.5579 13.5908 12.7862 12.7948 12.8165 11.8395C12.8468 10.9421 13.6033 10.2184 14.5415 10.1895C15.5251 10.2184 16.2968 11.0145 16.2665 11.9698C16.2363 12.8672 15.4796 13.5908 14.5415 13.6198Z" fill="#AAC3E7"></path></svg>	