<svg xmlns="http://www.w3.org/2000/svg" width="44" height="44" viewBox="0 0 44 44" fill="none"><circle cx="22" cy="22" r="22" fill="#1D1D20"></circle><path fill-rule="evenodd" clip-rule="evenodd" d="M33.1105 15.9656L22.4648 9.8194V22.112L33.1105 15.9656Z" fill="#BCDBFF"></path><path fill-rule="evenodd" clip-rule="evenodd" d="M22.465 34.4045V22.112L11.8193 15.9656V28.2582L22.465 34.4045Z" fill="#BCDBFF"></path><path d="M11.4098 28.968L22.0555 35.1143C22.1822 35.1875 22.3237 35.2242 22.4652 35.2242C22.6067 35.2242 22.7482 35.1875 22.875 35.1143L33.5207 28.968C33.7742 28.8217 33.9304 28.5512 33.9304 28.2584V15.9658C33.9304 15.673 33.7742 15.4024 33.5207 15.2561L22.875 9.10977C22.6214 8.96341 22.309 8.96341 22.0555 9.10977L11.4098 15.2561C11.1562 15.4024 11 15.673 11 15.9658V28.2584C11 28.5512 11.1561 28.8217 11.4098 28.968ZM22.4652 33.4584L12.639 27.7852V17.3852L22.0555 22.8218C22.1822 22.895 22.3237 22.9316 22.4652 22.9316C22.6067 22.9316 22.7482 22.895 22.875 22.8218L32.2914 17.3852V27.7853L22.4652 33.4584ZM22.4652 10.7658L31.4719 15.9658L22.4652 21.1659L13.4584 15.9658L22.4652 10.7658Z" fill="#C8C8C8"></path></svg>