<svg xmlns="http://www.w3.org/2000/svg" width="44" height="44" viewBox="0 0 44 44" fill="none"><circle cx="22" cy="22" r="22" fill="#1D1D20"></circle><path fill-rule="evenodd" clip-rule="evenodd" d="M22.5001 10.6166L27.8713 13.7176V19.9197L22.5001 23.0208L17.1289 19.9197V13.7176L22.5001 10.6166Z" fill="#BCDBFF"></path><path d="M34.9438 26.8455C34.7529 26.1712 34.036 25.5566 32.9138 25.7995C32.911 25.8001 32.9082 25.8007 32.9054 25.8014L28.2721 26.8909C28.2048 26.5605 28.0293 26.2642 27.7672 26.0435C27.4602 25.785 27.0728 25.6622 26.6756 25.6981C26.4077 25.7222 25.5014 25.82 24.542 25.9235C23.6266 26.0223 22.68 26.1244 22.4203 26.1478C21.8767 26.1967 21.167 26.0927 20.3449 25.9724C18.9914 25.7742 17.4573 25.5497 15.9192 25.8872C14.0918 26.2884 12.6944 27.3929 11.6472 29.2639C11.6429 29.2716 11.6388 29.2793 11.635 29.2873L10.05 32.5173C9.93124 32.7594 10.0312 33.0519 10.2733 33.1707C10.3425 33.2047 10.4158 33.2207 10.488 33.2207C10.6684 33.2207 10.8419 33.1204 10.9267 32.9474L12.5057 29.7295C14.5389 26.1092 17.6793 26.5691 20.2034 26.9387C21.05 27.0627 21.8498 27.1798 22.5077 27.1205C22.7761 27.0964 23.6847 26.9983 24.6468 26.8945C25.5597 26.796 26.5038 26.6941 26.7631 26.6708C26.8989 26.6586 27.032 26.7012 27.1383 26.7907C27.2456 26.881 27.3116 27.0073 27.3239 27.1461C27.332 27.2374 27.3536 27.4798 26.709 27.7516C25.3605 28.3202 23.9277 28.7971 22.778 29.0601C22.5151 29.1202 22.3507 29.3821 22.4108 29.645C22.4709 29.9078 22.7328 30.0723 22.9957 30.0121C24.1982 29.7371 25.69 29.2412 27.0884 28.6515C27.5749 28.4464 27.8771 28.1984 28.0584 27.9444L33.1244 26.7532C33.6653 26.6374 33.9335 26.862 34.0041 27.1115C34.0734 27.3564 33.969 27.6649 33.5798 27.8028C33.1827 27.9382 32.2317 28.3173 31.0284 28.7969C29.4334 29.4327 27.4483 30.2241 25.8671 30.8014C23.9258 31.5104 23.3776 31.5953 21.3533 31.5013L18.1561 31.3528C17.9827 31.3457 17.8177 31.4296 17.7234 31.5756L17.1471 32.4674C17.0007 32.6939 17.0657 32.9961 17.2923 33.1425C17.5188 33.2889 17.821 33.2239 17.9674 32.9973L18.3912 32.3413L21.3079 32.4767C23.4574 32.5765 24.1435 32.4703 26.202 31.7187C27.7965 31.1364 29.789 30.3422 31.39 29.704C32.5358 29.2473 33.5253 28.8528 33.8973 28.7262C33.8988 28.7256 33.9004 28.7252 33.9019 28.7246C34.8415 28.394 35.1372 27.529 34.9438 26.8455Z" fill="#C8C8C8"></path><path d="M11.8901 16.4016H13.355C13.6246 16.4016 13.8433 16.183 13.8433 15.9133C13.8433 15.6437 13.6246 15.425 13.355 15.425H11.8901C11.6205 15.425 11.4019 15.6437 11.4019 15.9133C11.4019 16.183 11.6205 16.4016 11.8901 16.4016Z" fill="#C8C8C8"></path><path d="M14.1261 19.2791L12.8575 20.0115C12.624 20.1464 12.5439 20.445 12.6788 20.6785C12.7693 20.8352 12.9333 20.9228 13.1021 20.9228C13.1849 20.9228 13.2689 20.9016 13.3458 20.8572L14.6143 20.1248C14.8479 19.99 14.9279 19.6914 14.7931 19.4578C14.6583 19.2243 14.3597 19.1443 14.1261 19.2791Z" fill="#C8C8C8"></path><path d="M12.8575 11.8151L14.1261 12.5475C14.203 12.5919 14.2869 12.613 14.3697 12.613C14.5385 12.613 14.7026 12.5254 14.7931 12.3688C14.9279 12.1352 14.8479 11.8367 14.6143 11.7018L13.3458 10.9694C13.1121 10.8345 12.8136 10.9146 12.6788 11.1481C12.5439 11.3816 12.624 11.6802 12.8575 11.8151Z" fill="#C8C8C8"></path><path d="M31.1572 15.9133C31.1572 16.183 31.3759 16.4016 31.6455 16.4016H33.1104C33.38 16.4016 33.5986 16.183 33.5986 15.9133C33.5986 15.6437 33.38 15.425 33.1104 15.425H31.6455C31.3759 15.425 31.1572 15.6437 31.1572 15.9133Z" fill="#C8C8C8"></path><path d="M30.3863 20.1249L31.6549 20.8573C31.7318 20.9017 31.8157 20.9228 31.8985 20.9228C32.0673 20.9228 32.2314 20.8352 32.3219 20.6786C32.4567 20.445 32.3767 20.1464 32.1432 20.0116L30.8746 19.2792C30.641 19.1442 30.3424 19.2243 30.2076 19.4579C30.0727 19.6914 30.1528 19.99 30.3863 20.1249Z" fill="#C8C8C8"></path><path d="M30.6309 12.613C30.7138 12.613 30.7977 12.5919 30.8746 12.5475L32.1432 11.8151C32.3767 11.6802 32.4567 11.3816 32.3219 11.1481C32.1871 10.9146 31.8884 10.8345 31.6549 10.9694L30.3863 11.7018C30.1528 11.8366 30.0727 12.1352 30.2076 12.3688C30.298 12.5254 30.4621 12.613 30.6309 12.613Z" fill="#C8C8C8"></path><path d="M15.7872 13.5065L22.0123 17.1006V24.2887C22.0123 24.5583 22.2309 24.777 22.5005 24.777C22.7702 24.777 22.9888 24.5583 22.9888 24.2887V17.1006L29.2139 13.5065C29.4475 13.3717 29.5275 13.0731 29.3926 12.8395C29.2578 12.606 28.9592 12.526 28.7256 12.6608L22.5006 16.2549L16.2755 12.6608C16.0419 12.5259 15.7433 12.606 15.6085 12.8395C15.4736 13.0731 15.5537 13.3717 15.7872 13.5065Z" fill="#1D1D20"></path></svg>