<svg xmlns="http://www.w3.org/2000/svg" width="19" height="18" viewBox="0 0 19 18" fill="none"><path d="M17.1 16.2V10.926C17.1 8.334 16.511 6.354 13.319 6.354C11.78 6.354 10.754 7.146 10.336 7.902H10.298V6.588H7.27698V16.2H10.431V11.43C10.431 10.17 10.678 8.964 12.312 8.964C13.927 8.964 13.946 10.386 13.946 11.502V16.182H17.1V16.2Z" fill="#AAC3E7"></path><path d="M2.14697 6.58789H5.30097V16.1999H2.14697V6.58789Z" fill="#AAC3E7"></path><path d="M3.72402 1.7998C2.71702 1.7998 1.90002 2.5738 1.90002 3.5278C1.90002 4.4818 2.71702 5.2738 3.72402 5.2738C4.73102 5.2738 5.54802 4.4818 5.54802 3.5278C5.54802 2.5738 4.73102 1.7998 3.72402 1.7998Z" fill="#AAC3E7"></path></svg>