<svg width="191" height="32" viewBox="0 0 191 32" fill="none" xmlns="http://www.w3.org/2000/svg">
<mask id="mask0_2942_272" style="mask-type:alpha" maskUnits="userSpaceOnUse" x="0" y="0" width="191" height="32">
<rect width="191" height="32" fill="#D9D9D9"/>
</mask>
<g mask="url(#mask0_2942_272)">
<path d="M48.6042 24H44.8184V5.64435H53.1644C56.9503 5.64435 60.3633 7.10706 60.3633 11.6673C60.3633 15.9407 56.7208 17.6616 53.1644 17.6616H48.6042V24ZM48.6042 8.74187V14.564H53.0784C55 14.564 56.6061 13.9044 56.6061 11.4092C56.6061 8.97131 54.8566 8.74187 53.0784 8.74187H48.6042ZM62.5036 6.33268C62.5036 5.44358 63.2493 4.32504 64.7694 4.32504C66.2608 4.32504 67.0351 5.35754 67.0351 6.27532C67.0351 7.19311 66.3468 8.34034 64.7694 8.34034C63.2493 8.34034 62.5036 7.25047 62.5036 6.33268ZM66.6049 24H62.9338V9.88909H66.6049V24ZM81.6542 24H77.8684V5.64435H86.2145C90.0003 5.64435 93.4133 7.10706 93.4133 11.6673C93.4133 15.9407 89.7709 17.6616 86.2145 17.6616H81.6542V24ZM81.6542 8.74187V14.564H86.1284C88.05 14.564 89.6562 13.9044 89.6562 11.4092C89.6562 8.97131 87.9066 8.74187 86.1284 8.74187H81.6542ZM95.9265 24V9.88909H98.6225L99.4829 13.6749C100.143 11.065 101.634 9.71701 103.211 9.68833C104.703 9.65965 106.022 10.0899 106.94 11.6386L104.473 13.9044C104.014 12.9292 103.269 12.3556 102.121 12.5564C100.573 12.8432 99.5976 14.564 99.5976 16.7438V24H95.9265ZM108.143 16.9445C108.143 12.3843 110.81 9.74569 115.743 9.74569C120.676 9.74569 123.343 12.413 123.343 16.9445C123.343 22.1071 119.988 24.1434 115.743 24.1434C111.527 24.1434 108.143 22.1071 108.143 16.9445ZM115.743 21.1319C118.124 21.1319 119.787 20.1568 119.787 16.9445C119.787 13.7323 118.152 12.7572 115.743 12.7572C113.334 12.7572 111.699 13.7323 111.699 16.9445C111.699 20.1281 113.334 21.1319 115.743 21.1319ZM132.626 21.3327V24.0574C129.959 24.0574 126.976 24.2008 126.976 20.587V11.782H124.682V9.91777H127.119L127.98 5.67303H130.647V9.91777H133.458V11.782H130.647V19.87C130.647 21.3614 131.307 21.3614 132.626 21.3327ZM134.779 16.9445C134.779 12.3843 137.446 9.74569 142.379 9.74569C147.312 9.74569 149.98 12.413 149.98 16.9445C149.98 22.1071 146.624 24.1434 142.379 24.1434C138.163 24.1434 134.779 22.1071 134.779 16.9445ZM142.379 21.1319C144.76 21.1319 146.423 20.1568 146.423 16.9445C146.423 13.7323 144.788 12.7572 142.379 12.7572C139.97 12.7572 138.335 13.7323 138.335 16.9445C138.335 20.1281 139.97 21.1319 142.379 21.1319ZM159.578 21.1319C161.27 21.1319 162.905 20.7304 163.364 18.8948L167.035 18.8375C166.404 22.9388 163.163 24.1434 159.578 24.1434C155.362 24.1434 151.977 22.1071 151.977 16.9445C151.977 12.3843 154.645 9.74569 159.578 9.74569C164.224 9.74569 166.518 11.9541 167.063 15.4818L163.507 15.5105C163.134 13.3308 161.614 12.7572 159.578 12.7572C157.169 12.7572 155.534 13.7323 155.534 16.9445C155.534 20.1281 157.197 21.1319 159.578 21.1319ZM169.089 16.9445C169.089 12.3843 171.756 9.74569 176.69 9.74569C181.623 9.74569 184.29 12.413 184.29 16.9445C184.29 22.1071 180.934 24.1434 176.69 24.1434C172.473 24.1434 169.089 22.1071 169.089 16.9445ZM176.69 21.1319C179.07 21.1319 180.734 20.1568 180.734 16.9445C180.734 13.7323 179.099 12.7572 176.69 12.7572C174.28 12.7572 172.646 13.7323 172.646 16.9445C172.646 20.1281 174.28 21.1319 176.69 21.1319ZM190.934 24H187.263V3.60802H190.934V24Z" fill="url(#paint0_linear_2942_272)"/>
<path d="M25.8421 21.0302C23.4607 22.4554 20.9301 23.2607 18.2529 23.4573C19.2134 26.344 20.4438 28.9884 22.0458 31.3388H32.0966C29.303 28.3814 27.2674 24.9118 25.8421 21.031V21.0302Z" fill="#8BB5F5"/>
<path d="M33.0426 0H1.35971V7.26242H8.90493C8.32811 16.9028 5.78458 25.2145 0 31.338H10.0508C12.2434 28.1211 13.7411 24.3549 14.8025 20.168C15.9242 20.625 17.1511 20.8768 18.4367 20.8768C23.7643 20.8768 28.0831 16.5579 28.0831 11.2303C28.0831 9.81543 27.7788 8.4721 27.2313 7.26242H33.0417V0H33.0426ZM18.4367 14.7266C16.5062 14.7266 14.9413 13.1617 14.9413 11.2312C14.9413 9.30069 16.5062 7.73577 18.4367 7.73577C20.3672 7.73577 21.9321 9.30069 21.9321 11.2312C21.9321 13.1617 20.3672 14.7266 18.4367 14.7266Z" fill="#8BB5F5"/>
</g>
<defs>
<linearGradient id="paint0_linear_2942_272" x1="42.2407" y1="16" x2="193.241" y2="16" gradientUnits="userSpaceOnUse">
<stop stop-color="#89B4F5"/>
<stop offset="1" stop-color="#FEFEFE"/>
</linearGradient>
</defs>
</svg>
