<svg xmlns="http://www.w3.org/2000/svg" width="44" height="44" viewBox="0 0 44 44" fill="none"><circle cx="22" cy="22" r="22" fill="#1D1D20"></circle><path d="M9.50785 16.1152L15.1153 10.5077L28.8789 10.5077L34.4863 16.1152L28.3691 20.1935L15.625 20.1935L9.50785 16.1152Z" fill="#BCDBFF"></path><path d="M9.08123 16.3903C9.21912 16.6041 21.5597 35.7449 21.5773 35.771C21.7811 36.0729 22.2314 36.0655 22.4256 35.7586L34.9131 16.3903C35.0427 16.1893 35.0145 15.9252 34.8454 15.7562C34.8369 15.7476 29.2401 10.1514 29.2353 10.1463C29.1433 10.056 29.0163 10 28.8751 10L15.1193 10C14.9782 10 14.8489 10.0562 14.7564 10.1487L9.14896 15.7562C8.97989 15.9252 8.95167 16.1893 9.08123 16.3903ZM23.3674 32.4239L29.1368 11.4835L33.8377 16.1844L23.3674 32.4239ZM21.9972 33.5748L15.7819 11.0153L28.2125 11.0153L21.9972 33.5748ZM14.8576 11.4835L20.6269 32.4239L10.1567 16.1844L14.8576 11.4835Z" fill="#C8C8C8"></path></svg>