<svg xmlns="http://www.w3.org/2000/svg" width="44" height="44" viewBox="0 0 44 44" fill="none"><circle cx="22" cy="22" r="22" fill="#1D1D20"></circle><path fill-rule="evenodd" clip-rule="evenodd" d="M21.979 13.1684V21.897L29.1664 17.7474L29.5382 17.5327L21.979 13.1684Z" fill="#BCDBFF"></path><path fill-rule="evenodd" clip-rule="evenodd" d="M21.9791 21.897L14.7918 17.7474L14.4199 17.5327V26.2613L21.9791 30.6257V21.897Z" fill="#BCDBFF"></path><path d="M34.6671 17.7747C34.8471 17.6708 34.958 17.4787 34.958 17.2708V14.7394C34.958 14.5314 34.8471 14.3394 34.6671 14.2354L32.4748 12.9697C32.2947 12.8658 32.0729 12.8658 31.8929 12.9697L29.9915 14.0675L24.7531 11.0431V8.84759C24.7531 8.63967 24.6422 8.44758 24.4622 8.34366L22.27 7.07795C22.0899 6.97402 21.8681 6.97402 21.688 7.07795L19.4958 8.34366C19.3157 8.44758 19.2048 8.63967 19.2048 8.84759V11.0431L13.9664 14.0674L12.0651 12.9697C11.885 12.8657 11.6632 12.8657 11.4832 12.9697L9.29095 14.2354C9.11091 14.3394 9 14.5314 9 14.7394V17.2707C9 17.4786 9.11091 17.6707 9.29095 17.7746L11.1923 18.8724V24.9211L9.29095 26.0188C9.11091 26.1228 9 26.3149 9 26.5228V29.0543C9 29.2622 9.11091 29.4543 9.29095 29.5582L11.4832 30.8239C11.5733 30.8759 11.6737 30.9019 11.7742 30.9019C11.8747 30.9019 11.9751 30.8759 12.0651 30.8239L13.9665 29.7262L19.2049 32.7506V34.9461C19.2049 35.154 19.3158 35.3461 19.4958 35.4501L21.688 36.7157C21.7781 36.7677 21.8785 36.7937 21.979 36.7937C22.0795 36.7937 22.1799 36.7677 22.27 36.7157L24.4622 35.45C24.6423 35.3461 24.7532 35.154 24.7532 34.9461V32.7506L29.9916 29.7262L31.8929 30.8239C31.9829 30.8759 32.0833 30.9019 32.1838 30.9019C32.2843 30.9019 32.3848 30.8759 32.4748 30.8239L34.6671 29.5582C34.8471 29.4543 34.958 29.2622 34.958 29.0543V26.5229C34.958 26.315 34.8471 26.1229 34.6671 26.019L32.7657 24.9212V18.8724L34.6671 17.7747ZM24.1713 31.7427L22.6895 30.8872L29.4096 27.0073V28.7184L24.1713 31.7427ZM19.7867 31.7427L14.5483 28.7183V27.0072L21.2685 30.8871L19.7867 31.7427ZM12.3561 18.8724L13.8379 18.0169V25.7768L12.3561 24.9212V18.8724ZM19.7868 12.0509L21.2686 12.9065L14.5484 16.7864V15.0753L19.7868 12.0509ZM24.1713 12.0509L29.4097 15.0753V16.7863L22.6895 12.9065L24.1713 12.0509ZM21.979 29.9535L15.0017 25.9252V18.5404L21.688 22.4008C21.7781 22.4527 21.8785 22.4787 21.979 22.4787C22.0795 22.4787 22.1799 22.4527 22.27 22.4008L28.9563 18.5404V25.9252L21.979 29.9535ZM21.979 13.8401L28.3744 17.5325L21.979 21.2249L15.5836 17.5325L21.979 13.8401ZM30.1201 25.7767V18.017L31.6019 18.8725V24.9212L30.1201 25.7767ZM32.1838 14.1456L33.7942 15.0753V16.9348L32.1838 17.8646L30.5734 16.9348V15.0753L32.1838 14.1456ZM20.3686 9.18358L21.979 8.25381L23.5894 9.18358V11.0431L21.979 11.9728L20.3686 11.043V9.18358ZM10.1638 15.0753L11.7742 14.1456L13.3846 15.0753V16.9348L11.7742 17.8646L10.1638 16.9348V15.0753ZM11.7742 29.6481L10.1638 28.7183V26.8588L11.7742 25.9291L13.3846 26.8588V28.7183L11.7742 29.6481ZM23.5894 34.6101L21.979 35.5399L20.3686 34.6101V32.7506L21.979 31.8209L23.5894 32.7506V34.6101ZM33.7942 28.7183L32.1838 29.6481L30.5734 28.7183V26.8588L32.1838 25.9291L33.7942 26.8588V28.7183Z" fill="#C8C8C8"></path></svg>